HIERARCHY
ROOT Hips
{
	OFFSET 0.00000 0.00000 0.00000
	CHANNELS 6 Xposition Yposition Zposition Zrotation Yrotation Xrotation 
	JOINT RightUpLegDummy
	{
		OFFSET 0 0 0
		CHANNELS 3 Zrotation Yrotation Xrotation
		JOINT RightUpLeg
		{
			OFFSET -3.52197 -3.41223 0.04002
			CHANNELS 3 Zrotation Yrotation Xrotation
			JOINT RightLeg
			{
				OFFSET 0.00006 -17.42390 1.60435
				CHANNELS 3 Zrotation Yrotation Xrotation
				JOINT RightFoot
				{
					OFFSET 0.06153 -16.50078 -1.63901
					CHANNELS 3 Zrotation Yrotation Xrotation
					JOINT RightToes
					{
						OFFSET 0.00298 -1.73825 3.34613
						CHANNELS 3 Zrotation Yrotation Xrotation
						End Site
						{
							OFFSET 0.00480 -0.05416 3.85043
						}
					}
				}
			}
		}
	}
	JOINT SpineDummy
	{
		OFFSET 0 0 0
		CHANNELS 3 Zrotation Yrotation Xrotation
		JOINT Spine
		{
			OFFSET 0.00000 4.68130 0.00000
			CHANNELS 3 Zrotation Yrotation Xrotation
			JOINT Spine1
			{
				OFFSET -0.00000 10.10138 0.05002
				CHANNELS 3 Zrotation Yrotation Xrotation
				JOINT HEadDummy
				{
					OFFSET 0 0 0
					CHANNELS 3 Zrotation Yrotation Xrotation
					JOINT Head
					{
						OFFSET -0.00000 3.43865 0.00438
						CHANNELS 3 Zrotation Yrotation Xrotation
						End Site
						{
							OFFSET -0.11417 5.02924 0.98962
						}
					}
				}
				JOINT LeftShoulder1Dummy
				{
					OFFSET 0 0 0
					CHANNELS 3 Zrotation Yrotation Xrotation
					JOINT LeftShoulder1
					{
						OFFSET 3.53937 -0.14262 -0.08662
						CHANNELS 3 Zrotation Yrotation Xrotation
						JOINT LeftArm
						{
							OFFSET 4.04833 -0.00133 0.12681
							CHANNELS 3 Zrotation Yrotation Xrotation
							JOINT LeftForeArm
							{
								OFFSET 10.33880 -0.01036 -0.55515
								CHANNELS 3 Zrotation Yrotation Xrotation
								JOINT LeftHand
								{
									OFFSET 8.69677 0.07543 0.40060
									CHANNELS 3 Zrotation Yrotation Xrotation
									End Site
									{
										OFFSET 5.28377 -0.21905 0.59205
									}
								}
							}
						}
					}
				}
				JOINT RightShoulderDummy
				{
					OFFSET 0 0 0
					CHANNELS 3 Zrotation Yrotation Xrotation
					JOINT RightShoulder
					{
						OFFSET -3.53937 -0.14262 -0.08660
						CHANNELS 3 Zrotation Yrotation Xrotation
						JOINT RightArm
						{
							OFFSET -4.04833 -0.00133 0.12683
							CHANNELS 3 Zrotation Yrotation Xrotation
							JOINT RightForeArm
							{
								OFFSET -10.37987 -0.01039 -0.55511
								CHANNELS 3 Zrotation Yrotation Xrotation
								JOINT RightHand
								{
									OFFSET -8.67398 0.07538 0.40058
									CHANNELS 3 Zrotation Yrotation Xrotation
									End Site
									{
										OFFSET -5.24810 -0.21916 0.59204
									}
								}
							}
						}
					}
				}
			}
		}
	}
	JOINT LeftUpLegDummy
	{
		OFFSET 0 0 0
		CHANNELS 3 Zrotation Yrotation Xrotation
		JOINT LeftUpLeg
		{
			OFFSET 3.52197 -3.41223 0.04002
			CHANNELS 3 Zrotation Yrotation Xrotation
			JOINT LeftLeg
			{
				OFFSET -0.00012 -17.42399 1.60337
				CHANNELS 3 Zrotation Yrotation Xrotation
				JOINT LeftFoot
				{
					OFFSET -0.09972 -16.50070 -1.63802
					CHANNELS 3 Zrotation Yrotation Xrotation
					JOINT LeftToes
					{
						OFFSET -0.01575 -1.73823 3.34611
						CHANNELS 3 Zrotation Yrotation Xrotation
						End Site
						{
							OFFSET 0.03150 -0.01868 3.85031
						}
					}
				}
			}
		}
	}
}
MOTION
Frames: 11
Frame Time: 0.033333
2.6512 40.3032 -69.1584 -1.4666 -9.1942 0.1796 0.0000 0.0000 0.0000 3.4566 -0.1820 -1.0005 -1.4460 -5.6134 3.6220 -3.1702 0.2132 -2.9472 0.0000 -0.0000 -0.0000 0.0000 0.0000 0.0000 1.5731 -0.5530 -2.1503 2.3960 -1.2058 2.8492 -0.0000 0.0000 -0.0000 1.9477 1.4820 -6.2372 -0.0000 0.0000 -0.0000 -33.6919 -2.5882 2.4103 -45.7768 -15.8055 -16.6664 -10.3557 4.9891 52.7837 17.2373 -4.2939 -1.4045 -0.0000 0.0000 -0.0000 35.0712 5.2287 3.5868 40.2849 4.5112 -16.7175 10.5729 0.0180 25.6647 -10.6842 3.1262 -0.7585 0.0000 0.0000 0.0000 0.8623 1.3892 0.0222 0.7470 3.3677 5.8983 3.4818 -0.1380 -5.8684 0.0000 0.0000 -0.0000
2.6512 40.3032 -69.1584 -1.4666 -9.1833 0.1796 0.0000 0.0000 0.0000 3.4566 -0.1941 -1.0005 -1.4313 -5.6124 3.6140 -3.1263 0.2104 -2.9471 0.0000 -0.0000 -0.0000 0.0000 0.0000 0.0000 1.5731 -0.5643 -2.1503 2.3967 -1.2180 2.8582 -0.0000 0.0000 -0.0000 1.9336 1.4560 -6.3173 -0.0000 0.0000 -0.0000 -33.6714 -2.5946 2.4103 -45.7944 -15.7879 -16.6564 -10.3557 4.9891 52.7529 17.1768 -4.3265 -1.4080 -0.0000 0.0000 -0.0000 35.0554 5.2246 3.5868 40.3013 4.5319 -16.7431 10.5621 0.0396 25.5650 -10.7454 2.7910 -0.7344 0.0000 0.0000 0.0000 0.8623 1.3892 0.0222 0.7477 3.3562 5.8983 3.4876 -0.1383 -5.8684 0.0000 0.0000 -0.0000
2.6512 40.3032 -69.1584 -1.4666 -9.1772 0.1796 0.0000 0.0000 0.0000 3.4566 -0.2024 -1.0005 -1.4176 -5.6116 3.6040 -3.0834 0.2077 -2.9469 0.0000 -0.0000 -0.0000 0.0000 0.0000 0.0000 1.5732 -0.5751 -2.1503 2.4063 -1.2315 2.8628 -0.0000 0.0000 -0.0000 1.9182 1.4417 -6.4456 -0.0000 0.0000 -0.0000 -33.6689 -2.6038 2.4103 -45.7991 -15.7656 -16.6463 -10.3556 4.9893 52.7145 17.1262 -4.3667 -1.4112 -0.0000 0.0000 -0.0000 35.0315 5.2191 3.5868 40.3351 4.5625 -16.7436 10.5628 0.0875 25.3566 -11.0458 2.2147 -0.7054 0.0000 0.0000 0.0000 0.8623 1.3892 0.0172 0.7484 3.3458 5.8984 3.5005 -0.1392 -5.8685 0.0000 0.0000 -0.0000
2.6512 40.3032 -69.1584 -1.4666 -9.1818 0.1796 0.0000 0.0000 0.0000 3.4566 -0.2003 -1.0005 -1.4179 -5.6116 3.6015 -3.0769 0.2072 -2.9469 0.0000 -0.0000 -0.0000 0.0000 0.0000 0.0000 1.5536 -0.5798 -2.1503 2.4415 -1.2426 2.8691 -0.0000 0.0000 -0.0000 1.9200 1.4515 -6.5295 -0.0000 0.0000 -0.0000 -33.7138 -2.6037 2.4103 -45.7716 -15.7623 -16.6473 -10.3556 4.9893 52.7107 17.1348 -4.3702 -1.4120 -0.0000 0.0000 -0.0000 35.0038 5.2150 3.5868 40.3749 4.5947 -16.6740 10.5846 0.1365 25.2709 -11.3549 1.9138 -0.6992 0.0000 0.0000 0.0000 0.8623 1.3892 0.0072 0.7526 3.3530 5.8984 3.5075 -0.1396 -5.8685 0.0000 0.0000 -0.0000
2.6526 40.3032 -69.1584 -1.4666 -9.1879 0.1762 0.0000 0.0000 0.0000 3.4566 -0.2014 -0.9977 -1.4218 -5.6083 3.5985 -3.0924 0.2082 -2.9422 0.0000 -0.0000 -0.0000 0.0000 0.0000 0.0000 1.5236 -0.5880 -2.1492 2.4856 -1.2584 2.8715 -0.0000 0.0000 -0.0000 1.9199 1.4575 -6.5391 -0.0000 0.0000 -0.0000 -33.7696 -2.5884 2.4103 -45.7452 -15.7753 -16.6619 -10.3556 4.9892 52.7322 17.2064 -4.3602 -1.4164 -0.0000 0.0000 -0.0000 34.9826 5.2124 3.5868 40.4000 4.6252 -16.5712 10.6113 0.1653 25.4010 -11.2896 2.0913 -0.7103 0.0000 0.0000 0.0000 0.8623 1.3892 0.0079 0.7588 3.3671 5.8983 3.5025 -0.1393 -5.8685 0.0000 0.0000 -0.0000
2.6549 40.3032 -69.1584 -1.4666 -9.1884 0.1643 0.0000 0.0000 0.0000 3.4566 -0.2039 -0.9862 -1.4181 -5.6023 3.5965 -3.1046 0.2090 -2.9314 0.0000 -0.0000 -0.0000 0.0000 0.0000 0.0000 1.5131 -0.6028 -2.1257 2.5024 -1.2757 2.8528 -0.0000 0.0000 -0.0000 1.8789 1.4578 -6.5117 -0.0000 0.0000 -0.0000 -33.7985 -2.5625 2.4103 -45.7437 -15.7848 -16.6758 -10.3587 4.9894 52.7259 17.3412 -4.3633 -1.4284 -0.0000 0.0000 -0.0000 34.9707 5.2107 3.5868 40.4205 4.6528 -16.5145 10.6206 0.1776 25.5771 -10.9163 2.4334 -0.7158 0.0000 0.0000 0.0000 0.8623 1.3892 0.0195 0.7616 3.3719 5.8983 3.5033 -0.1393 -5.8685 0.0000 0.0000 -0.0000
2.6573 40.3032 -69.1607 -1.4666 -9.1931 0.1560 0.0000 0.0000 0.0000 3.4566 -0.2066 -0.9776 -1.4114 -5.5963 3.5981 -3.1060 0.2090 -2.9240 0.0000 -0.0000 -0.0000 0.0000 0.0000 0.0000 1.5283 -0.6156 -2.0956 2.4891 -1.2861 2.8257 -0.0000 0.0000 -0.0000 1.8013 1.4905 -6.4870 -0.0000 0.0000 -0.0000 -33.8254 -2.5424 2.4103 -45.7325 -15.7776 -16.6655 -10.3778 4.9917 52.6316 17.4910 -4.3431 -1.4383 -0.0000 0.0000 -0.0000 34.9622 5.2102 3.5868 40.4559 4.6833 -16.5440 10.6006 0.1786 25.6662 -10.6328 2.6022 -0.7108 0.0000 0.0000 0.0000 0.8623 1.3892 0.0231 0.7645 3.3738 5.9056 3.5168 -0.1402 -5.8686 0.0000 0.0000 -0.0000
2.6596 40.3032 -69.1648 -1.4661 -9.2035 0.1459 0.0000 0.0000 0.0000 3.4551 -0.2092 -0.9801 -1.4087 -5.5872 3.6113 -3.1049 0.2090 -2.9317 0.0000 -0.0000 -0.0000 0.0000 0.0000 0.0000 1.5315 -0.6245 -2.0816 2.4835 -1.2941 2.8257 -0.0000 0.0000 -0.0000 1.7497 1.5572 -6.4663 -0.0000 0.0000 -0.0000 -33.8805 -2.5430 2.4133 -45.6827 -15.7554 -16.6312 -10.4199 4.9976 52.4298 17.5719 -4.2686 -1.4344 -0.0000 0.0000 -0.0000 34.9703 5.2128 3.5868 40.4768 4.7195 -16.6254 10.5598 0.1566 25.7429 -10.5474 2.6575 -0.7094 0.0000 0.0000 0.0000 0.8594 1.3851 0.0204 0.7734 3.3870 5.9218 3.5251 -0.1408 -5.8686 0.0000 0.0000 -0.0000
2.6624 40.3032 -69.1693 -1.4566 -9.2111 0.1187 0.0000 0.0000 0.0000 3.4402 -0.2218 -0.9758 -1.4072 -5.5703 3.6438 -3.1023 0.2089 -2.9470 0.0000 -0.0000 -0.0000 0.0000 0.0000 0.0000 1.4977 -0.6374 -2.0747 2.5030 -1.3098 2.8542 -0.0000 0.0000 -0.0000 1.7693 1.5801 -6.4408 -0.0000 0.0000 -0.0000 -33.9325 -2.5592 2.4229 -45.6342 -15.7296 -16.6074 -10.4547 5.0045 52.1960 17.5911 -4.1872 -1.4242 -0.0000 0.0000 -0.0000 35.0128 5.2209 3.5868 40.4419 4.7496 -16.6904 10.5271 0.1109 25.8467 -10.4410 2.7478 -0.7094 0.0000 0.0000 0.0000 0.8422 1.3737 0.0375 0.7841 3.4076 5.9283 3.5102 -0.1398 -5.8685 0.0000 0.0000 -0.0000
2.6654 40.3032 -69.1726 -1.4469 -9.2164 0.0851 0.0000 0.0000 0.0000 3.4252 -0.2359 -0.9567 -1.4061 -5.5514 3.6628 -3.0993 0.2087 -2.9490 0.0000 -0.0000 -0.0000 0.0000 0.0000 0.0000 1.4602 -0.6533 -2.0588 2.5179 -1.3270 2.8773 -0.0000 0.0000 -0.0000 1.8308 1.5011 -6.4277 -0.0000 0.0000 -0.0000 -33.9485 -2.5701 2.4283 -45.6209 -15.7152 -16.6194 -10.4570 5.0086 52.0767 17.6740 -4.1546 -1.4264 -0.0000 0.0000 -0.0000 35.0564 5.2286 3.5868 40.3929 4.7629 -16.7042 10.5243 0.0654 25.8545 -10.2574 2.7628 -0.6977 0.0000 0.0000 0.0000 0.8269 1.3655 0.0711 0.7897 3.4224 5.9197 3.4894 -0.1385 -5.8685 0.0000 0.0000 -0.0000
2.6681 40.3032 -69.1752 -1.4561 -9.2280 0.0776 0.0000 0.0000 0.0000 3.4327 -0.2311 -0.9475 -1.4049 -5.5439 3.6503 -3.0965 0.2085 -2.9321 0.0000 -0.0000 -0.0000 0.0000 0.0000 0.0000 1.4625 -0.6603 -2.0530 2.5067 -1.3321 2.8820 -0.0000 0.0000 -0.0000 1.8776 1.3821 -6.4476 -0.0000 0.0000 -0.0000 -33.9665 -2.5680 2.4285 -45.5922 -15.7142 -16.6449 -10.4421 5.0094 52.1259 17.8884 -4.1377 -1.4419 -0.0000 0.0000 -0.0000 35.0414 5.2257 3.5848 40.4058 4.7662 -16.7022 10.5353 0.0207 25.7537 -10.1315 2.6286 -0.6781 0.0000 0.0000 0.0000 0.8325 1.3676 0.0776 0.7929 3.4295 5.9202 3.4934 -0.1387 -5.8685 0.0000 0.0000 -0.0000
